<?xml version="1.0" standalone="no"?>
<!DOCTYPE svg PUBLIC "-//W3C//DTD SVG 20010904//EN"
 "http://www.w3.org/TR/2001/REC-SVG-20010904/DTD/svg10.dtd"> 
 
 
 <svg version="1.0" xmlns="http://www.w3.org/2000/svg"
 width="1962.000000pt" height="1853.000000pt" viewBox="0 0 1962.000000 1853.000000"
 preserveAspectRatio="xMidYMid meet">
<g transform="translate(0.000000,1853.000000) scale(0.100000,-0.100000)"
fill="#50278a" stroke="none">
<path d="M9425 14948 c-1064 -30 -2133 -399 -3005 -1036 -389 -285 -784 -668
-1081 -1052 -314 -405 -623 -956 -781 -1395 -228 -632 -324 -1148 -335 -1795
-7 -423 21 -756 93 -1110 15 -69 28 -167 31 -217 6 -106 20 -76 -129 -288 -95
-136 -123 -192 -149 -296 -19 -73 -20 -89 -9 -163 44 -305 334 -483 622 -379
l50 18 25 -30 c13 -17 40 -59 60 -95 176 -320 260 -456 407 -660 236 -328 467
-585 796 -886 420 -385 1089 -799 1615 -1001 325 -125 706 -232 1075 -304 54
-10 344 -45 491 -58 465 -43 1050 -10 1519 85 1186 241 2225 845 3021 1754
196 224 401 509 579 805 155 258 209 373 224 475 10 68 23 104 62 180 126 240
229 523 318 874 41 159 61 201 97 202 29 1 189 21 279 35 36 5 99 14 140 19
41 5 86 11 100 14 14 3 41 8 60 10 28 4 211 49 335 82 111 29 153 54 203 118
37 47 23 138 -25 169 -7 4 -19 14 -27 23 -9 8 -28 18 -43 20 -16 3 -41 12 -58
20 -34 17 -242 54 -383 69 -49 5 -169 24 -183 30 -21 8 -277 45 -310 45 -46 0
-52 30 -50 235 12 1322 -425 2547 -1268 3555 -121 144 -460 487 -606 612 -344
294 -742 557 -1153 763 -209 104 -254 124 -427 190 -490 185 -996 303 -1510
350 -146 14 -448 20 -670 13z m675 -293 c25 -3 101 -13 170 -21 854 -100 1761
-467 2465 -998 612 -461 1126 -1071 1472 -1746 375 -732 565 -1507 566 -2315
1 -326 -11 -372 -87 -331 -21 11 -64 18 -126 21 -105 6 -143 10 -212 27 -36 9
-56 9 -88 -1 -33 -10 -70 -10 -174 -1 -101 9 -171 9 -292 0 -87 -6 -276 -15
-419 -20 -235 -7 -266 -9 -320 -30 -99 -38 -157 -86 -198 -165 -46 -89 -40
-166 22 -298 35 -73 41 -97 41 -150 0 -36 -8 -87 -19 -118 -10 -30 -35 -120
-56 -199 -39 -153 -72 -235 -105 -265 -26 -23 -99 -24 -134 -2 -52 34 -146
222 -212 427 -94 288 -176 736 -195 1075 -20 340 -2 910 35 1133 3 15 8 54 11
87 35 333 176 782 266 847 14 11 50 22 81 25 46 5 65 1 102 -16 47 -23 231
-197 282 -266 16 -22 44 -53 62 -69 17 -16 32 -36 32 -43 0 -7 4 -13 10 -13 5
0 21 -11 35 -25 14 -14 25 -23 25 -19 0 4 9 -5 20 -19 26 -33 86 -43 147 -25
39 11 49 19 64 53 10 22 19 51 21 65 2 14 7 31 12 38 6 11 1 176 -9 272 -3 23
-33 182 -39 205 -16 58 -31 109 -45 155 -19 58 -79 192 -90 200 -4 3 -26 36
-51 74 -70 108 -182 213 -286 267 -127 67 -187 82 -324 83 -94 0 -129 -4 -190
-23 -223 -70 -400 -212 -566 -457 -188 -277 -296 -565 -410 -1094 -53 -245
-77 -549 -78 -985 -1 -387 -1 -379 59 -890 54 -456 205 -969 384 -1310 48 -91
128 -226 140 -235 3 -3 25 -30 48 -60 79 -106 203 -222 303 -286 111 -70 192
-100 319 -119 84 -13 107 -13 190 0 281 46 504 224 719 575 12 19 30 53 41 75
10 22 45 88 78 145 126 223 174 366 177 535 1 50 7 100 14 111 20 37 78 57
164 56 85 0 188 -18 188 -32 0 -48 363 -87 439 -47 66 34 76 25 71 -63 -6
-121 -235 -925 -277 -976 -83 -101 -114 -149 -184 -283 -329 -632 -774 -1166
-1356 -1628 -599 -476 -1385 -841 -2133 -992 -351 -71 -597 -99 -940 -107
-338 -9 -681 15 -940 65 -52 10 -130 24 -173 31 -176 26 -584 142 -802 227
-151 59 -363 152 -500 218 -730 355 -1394 918 -1884 1601 -240 333 -481 768
-481 867 0 33 72 163 100 182 29 20 31 23 159 288 50 103 96 208 101 233 14
62 27 86 136 249 115 173 201 282 324 405 116 118 215 190 259 190 56 0 69
-17 107 -140 154 -494 408 -877 749 -1129 118 -87 284 -175 405 -214 233 -76
505 -52 667 60 116 79 263 255 330 393 46 95 88 300 123 610 14 122 11 373 -5
489 -29 199 -101 389 -201 532 -56 80 -172 196 -245 246 -57 38 -184 106 -229
123 -19 6 -44 16 -55 21 -43 18 -226 59 -355 78 -132 19 -187 25 -380 37 -100
6 -132 18 -179 68 -19 20 -26 47 -41 155 -10 72 -21 139 -24 148 -3 10 -14 90
-26 178 -11 88 -23 171 -25 185 -13 68 -26 294 -21 358 8 95 42 212 83 285 75
134 223 245 363 272 55 10 202 17 219 9 9 -4 21 -8 26 -8 49 -7 95 -19 95 -27
0 -5 14 -9 31 -9 16 0 28 -4 25 -9 -8 -12 29 -21 83 -21 37 0 42 2 36 18 -8
18 -7 111 1 124 3 4 -5 17 -16 28 -11 11 -18 25 -15 30 4 6 2 10 -2 10 -9 0
-40 48 -42 63 -2 16 -27 47 -38 47 -6 0 -14 9 -18 19 -3 10 -24 34 -47 52 -23
19 -52 44 -65 57 -13 13 -23 19 -23 15 0 -4 -4 -3 -8 4 -8 12 -123 68 -134 65
-5 -1 -8 2 -8 6 0 5 -6 9 -12 10 -7 0 -24 3 -38 6 -270 64 -536 -7 -853 -226
-27 -19 -63 -51 -135 -121 -98 -95 -201 -279 -241 -429 -42 -155 -54 -271 -54
-518 0 -226 12 -380 62 -806 11 -91 7 -116 -23 -159 -35 -50 -52 -63 -148
-111 -183 -92 -383 -235 -559 -401 -41 -39 -75 -63 -89 -63 -27 0 -96 -68
-201 -200 -120 -151 -149 -195 -180 -277 -17 -43 -42 -98 -57 -123 -15 -25
-34 -58 -43 -75 -9 -16 -23 -30 -30 -30 -49 0 -99 432 -99 854 0 804 172 1530
540 2277 479 971 1303 1792 2285 2276 622 306 1233 473 1955 532 69 6 769 -2
820 -9z m-2800 -5461 c140 -32 214 -94 249 -210 48 -155 50 -484 4 -520 -53
-41 -92 -23 -213 99 -112 112 -214 278 -293 475 -49 124 -48 154 5 176 32 14
137 5 248 -20z"/>
<path d="M11093 12480 c-78 -16 -145 -64 -206 -148 -19 -26 -72 -121 -119
-212 -47 -91 -99 -190 -115 -220 -17 -30 -56 -104 -88 -165 -32 -60 -75 -141
-97 -178 -21 -38 -38 -71 -38 -74 0 -3 -24 -48 -54 -102 -29 -53 -74 -136
-101 -186 -26 -49 -50 -94 -54 -100 -5 -5 -38 -67 -74 -137 -37 -70 -77 -146
-90 -170 -13 -24 -50 -92 -82 -153 -32 -60 -67 -122 -77 -137 -42 -60 -78 -28
-149 133 -60 135 -168 383 -214 489 -34 79 -161 367 -287 655 -42 94 -102 230
-134 304 -66 153 -114 231 -169 280 -88 77 -179 91 -280 42 -33 -16 -72 -41
-87 -57 -93 -101 -103 -257 -28 -421 17 -35 30 -67 30 -69 0 -3 20 -48 44
-102 24 -53 73 -164 109 -247 36 -82 108 -247 160 -365 82 -184 175 -397 222
-505 7 -16 24 -55 38 -85 14 -30 53 -118 87 -195 34 -77 72 -162 85 -190 130
-279 145 -322 145 -416 0 -67 -1 -70 -141 -351 -189 -379 -349 -712 -424 -883
-7 -16 -28 -61 -45 -100 -18 -38 -41 -92 -51 -120 -11 -27 -26 -63 -33 -80
-66 -145 -143 -388 -151 -470 -3 -38 -8 -80 -11 -93 -11 -54 47 -84 83 -43 9
11 20 18 23 16 9 -5 116 107 182 190 26 33 51 65 56 70 34 42 92 126 92 134 0
5 4 11 8 13 10 4 152 218 152 228 0 5 4 10 8 12 5 2 37 50 72 108 35 58 66
107 70 110 3 3 24 37 47 75 22 39 69 117 105 175 35 58 67 112 71 120 4 8 11
22 17 30 5 8 31 51 56 95 59 100 81 125 111 125 36 0 64 -35 127 -160 32 -63
86 -167 121 -230 34 -63 78 -144 97 -180 48 -91 50 -94 114 -200 89 -148 196
-290 247 -327 17 -13 33 -27 36 -31 9 -14 48 -32 68 -32 10 0 30 10 45 23 80
64 30 373 -132 822 -16 44 -58 161 -94 260 -67 188 -196 518 -223 570 -10 18
-18 67 -21 127 l-4 96 68 129 c37 70 90 169 118 218 28 50 61 108 72 130 24
45 74 137 112 205 13 25 55 101 92 170 37 69 79 145 92 170 14 25 47 86 73
135 55 102 118 219 260 480 54 99 114 209 133 245 19 36 66 120 104 187 87
154 109 216 109 311 1 79 -19 131 -69 186 -50 53 -141 81 -219 66z"/>
<path d="M7630 11772 c0 -23 4 -42 9 -42 6 0 7 17 4 38 -8 51 -13 53 -13 4z"/>
</g>
</svg>