<?xml version="1.0" standalone="no"?>
<!DOCTYPE svg PUBLIC "-//W3C//DTD SVG 20010904//EN"
 "http://www.w3.org/TR/2001/REC-SVG-20010904/DTD/svg10.dtd">
<svg version="1.0" xmlns="http://www.w3.org/2000/svg"
 width="4000.000000pt" height="3000.000000pt" viewBox="0 0 4000.000000 3000.000000"
 preserveAspectRatio="xMidYMid meet">
<metadata>
Created by potrace 1.15, written by Peter Selinger 2001-2017
</metadata>
<g transform="translate(0.000000,3000.000000) scale(0.100000,-0.100000)"
fill="#000000" stroke="none">
<path d="M16520 20504 c-310 -27 -557 -63 -814 -120 -1370 -304 -2587 -1146
-3349 -2319 -171 -264 -383 -665 -476 -900 -171 -433 -294 -902 -346 -1320 -8
-71 -18 -146 -20 -165 -14 -104 -25 -342 -25 -545 0 -361 24 -618 91 -985 21
-118 39 -245 39 -281 0 -65 -1 -67 -71 -170 -40 -57 -84 -120 -98 -139 -44
-57 -98 -171 -110 -232 -37 -180 4 -325 126 -447 79 -79 153 -117 255 -131 81
-12 129 -6 216 23 l64 21 28 -34 c16 -19 55 -84 87 -145 435 -822 1117 -1550
1917 -2048 66 -41 139 -85 161 -97 192 -107 261 -144 400 -211 245 -118 490
-210 780 -294 233 -66 560 -142 675 -155 41 -5 107 -13 146 -19 431 -63 1015
-62 1494 4 339 46 790 159 1097 274 1191 445 2138 1231 2790 2316 181 300 243
437 243 535 0 19 7 49 16 65 147 270 265 581 349 916 45 176 65 227 97 233 13
3 64 10 113 15 171 20 410 51 426 56 9 3 30 8 45 10 65 11 124 24 204 45 47
12 90 23 95 25 52 12 76 20 112 36 24 10 47 19 53 19 5 0 27 18 48 39 42 43
60 108 42 155 -22 60 -112 107 -255 136 -131 26 -152 30 -200 34 -61 6 -264
35 -285 41 -42 12 -251 45 -288 45 -37 0 -44 3 -53 27 -6 16 -10 109 -9 218 4
1127 -301 2152 -913 3070 -212 318 -418 565 -698 841 -345 338 -671 587 -1084
829 -650 381 -1337 609 -2134 706 -135 17 -238 21 -551 24 -212 1 -405 1 -430
-1z m635 -279 c707 -21 1484 -237 2187 -607 995 -524 1817 -1414 2275 -2463
228 -521 362 -1051 414 -1635 17 -189 17 -623 1 -677 -7 -23 -17 -45 -23 -48
-5 -4 -28 0 -52 9 -23 8 -80 17 -127 21 -95 7 -131 11 -208 26 -39 8 -66 7
-100 -1 -35 -9 -66 -10 -122 -2 -83 12 -309 8 -495 -7 -66 -6 -192 -11 -280
-11 -190 0 -257 -10 -340 -48 -104 -49 -162 -121 -186 -234 -12 -56 -2 -99 49
-206 49 -104 54 -179 19 -289 -14 -43 -40 -134 -57 -203 -31 -128 -68 -216
-103 -247 -23 -21 -107 -23 -131 -3 -28 22 -106 156 -143 242 -102 242 -187
594 -244 1017 -26 192 -38 827 -20 1031 55 613 112 891 238 1169 43 94 77 127
137 136 74 11 110 -1 188 -64 69 -55 211 -201 231 -237 5 -9 27 -32 48 -51 21
-19 39 -42 39 -51 0 -8 3 -12 6 -9 4 3 18 -6 33 -21 64 -67 137 -87 201 -56
23 11 38 24 35 31 -2 7 2 16 9 20 30 18 47 219 32 358 -4 33 -7 67 -8 75 0 8
-4 29 -9 45 -4 17 -10 41 -13 55 -2 14 -9 45 -16 70 -6 25 -15 62 -21 83 -5
21 -13 45 -18 55 -5 9 -26 55 -47 102 -21 47 -44 92 -51 101 -7 8 -13 19 -13
23 0 4 -4 12 -10 19 -5 7 -31 39 -57 72 -64 82 -108 124 -189 180 -159 112
-349 149 -532 105 -255 -61 -450 -221 -654 -535 -172 -265 -304 -667 -393
-1193 -29 -169 -45 -404 -52 -727 -6 -344 0 -458 53 -895 48 -405 95 -614 219
-985 113 -337 282 -636 471 -832 48 -50 161 -143 174 -143 3 0 15 -8 26 -18
31 -29 145 -79 229 -101 78 -21 223 -29 290 -16 107 20 235 76 330 143 62 44
206 188 262 262 48 64 106 158 153 250 19 36 41 76 50 90 47 71 132 249 160
336 26 80 33 121 37 214 3 65 11 126 19 141 20 40 75 61 159 61 103 0 152 -10
211 -43 39 -23 76 -32 164 -44 149 -20 206 -19 255 5 67 32 75 28 75 -36 0
-96 -91 -450 -217 -843 -42 -131 -51 -148 -99 -204 -34 -39 -85 -122 -140
-227 -108 -204 -165 -301 -267 -455 -495 -743 -1169 -1336 -1976 -1739 -246
-123 -389 -182 -701 -287 -682 -231 -1463 -310 -2215 -223 -71 8 -155 21 -185
29 -30 8 -91 19 -136 24 -374 46 -1021 271 -1499 522 -647 338 -1260 866
-1707 1469 -226 305 -481 742 -520 892 -12 46 -11 50 27 128 21 44 42 80 47
80 20 0 58 63 153 255 57 116 113 244 125 285 17 59 44 108 125 230 166 249
306 412 450 525 96 74 115 85 152 85 46 -1 62 -22 94 -124 62 -200 156 -421
231 -544 21 -34 38 -64 38 -66 0 -5 92 -138 139 -201 64 -84 233 -250 330
-323 156 -117 324 -202 484 -244 122 -32 323 -32 427 0 144 45 202 83 327 215
149 158 217 302 257 542 57 342 70 598 41 811 -24 179 -83 350 -171 492 -58
93 -204 244 -294 301 -199 129 -462 204 -810 231 -260 20 -298 26 -335 51 -19
13 -39 34 -44 46 -18 39 -102 572 -116 738 -12 136 -12 291 1 363 12 72 63
195 100 243 37 47 131 136 160 152 123 66 186 84 295 87 65 1 189 -18 189 -30
0 -4 12 -7 26 -7 15 0 29 -4 33 -9 9 -13 101 -15 123 -3 14 7 18 6 18 -5 0 -8
-12 -19 -27 -24 l-28 -10 26 -1 c36 -1 49 17 48 69 -1 45 -16 109 -18 80 -1
-8 -8 3 -16 24 -8 22 -13 42 -12 45 1 3 -11 19 -26 35 -15 16 -27 37 -27 47 0
11 -7 19 -15 19 -9 0 -18 8 -22 18 -6 17 -91 102 -102 102 -3 0 -17 12 -30 25
-13 14 -26 23 -29 20 -3 -3 -20 7 -39 21 -18 14 -33 22 -33 18 0 -3 -11 1 -24
10 -14 8 -37 18 -53 20 -15 3 -48 11 -73 19 -55 16 -330 13 -330 -5 0 -3 -19
-9 -42 -13 -24 -4 -54 -12 -68 -18 -14 -5 -30 -11 -36 -12 -23 -5 -192 -91
-244 -124 -180 -114 -327 -274 -406 -441 -31 -67 -90 -258 -98 -320 -28 -210
-26 -530 4 -820 14 -129 29 -265 36 -320 15 -115 11 -152 -25 -202 -26 -36
-53 -57 -115 -89 -224 -116 -391 -233 -577 -407 -42 -39 -88 -73 -102 -76 -38
-7 -38 -7 -124 -109 -42 -51 -80 -94 -83 -97 -32 -26 -155 -219 -176 -275 -34
-89 -113 -227 -128 -222 -49 15 -96 443 -96 872 0 563 90 1102 272 1625 97
280 274 670 413 910 322 558 785 1083 1305 1482 796 609 1752 972 2760 1048
158 12 311 17 405 13 33 -1 137 -5 230 -8z m-2665 -5456 c207 -31 302 -102
339 -253 29 -117 35 -403 10 -467 -12 -31 -53 -52 -83 -43 -53 16 -173 134
-261 255 -103 142 -225 416 -212 471 14 54 52 61 207 37z"/>
<path d="M18359 18036 c-123 -32 -191 -106 -310 -336 -44 -85 -98 -186 -118
-225 -21 -38 -62 -115 -91 -170 -29 -55 -60 -113 -70 -130 -10 -16 -46 -84
-80 -150 -34 -66 -88 -167 -120 -225 -88 -162 -270 -501 -341 -638 -72 -137
-92 -154 -135 -111 -13 13 -93 184 -179 379 -85 195 -159 364 -164 375 -5 11
-23 50 -40 88 -17 37 -31 69 -31 72 0 2 -11 28 -24 57 -13 29 -56 127 -96 218
-40 91 -90 203 -111 248 -21 46 -39 86 -39 89 0 3 -7 21 -17 41 -102 226 -145
289 -231 340 -39 23 -58 27 -117 27 -109 -1 -191 -51 -243 -150 -24 -44 -27
-61 -26 -145 0 -115 8 -138 180 -518 13 -29 24 -54 24 -57 0 -2 13 -32 29 -67
52 -115 191 -429 191 -432 0 -3 15 -37 34 -78 18 -40 47 -104 64 -143 17 -38
60 -135 95 -215 36 -80 76 -172 90 -205 14 -33 41 -94 60 -135 92 -200 171
-377 183 -413 8 -22 14 -73 14 -114 l0 -74 -176 -352 c-97 -194 -208 -419
-246 -502 -38 -82 -80 -172 -93 -200 -54 -116 -85 -186 -85 -190 0 -2 -11 -28
-24 -57 -63 -137 -96 -217 -96 -230 0 -8 -4 -18 -9 -23 -5 -6 -21 -48 -36 -95
-15 -47 -31 -94 -36 -105 -8 -20 -16 -47 -24 -82 -3 -10 -11 -40 -18 -68 -14
-51 -15 -153 -3 -174 4 -6 16 -11 27 -11 13 0 18 4 13 12 -5 7 0 9 14 6 16 -5
39 13 104 77 46 45 94 97 108 115 14 18 33 41 43 52 9 10 17 22 17 28 0 5 6
13 13 17 6 4 17 15 22 24 6 10 25 39 44 65 19 27 67 96 106 154 62 93 99 151
209 328 16 26 48 77 71 113 24 36 52 83 64 105 12 21 36 62 53 89 45 72 159
265 175 297 18 36 52 44 92 23 24 -12 42 -37 73 -103 23 -48 59 -117 80 -154
20 -36 62 -113 91 -170 78 -151 195 -356 231 -408 200 -285 304 -364 364 -276
22 32 23 42 19 138 -7 123 -17 180 -61 343 -48 181 -197 600 -326 920 -51 127
-99 246 -106 265 -7 19 -13 73 -14 119 0 79 2 89 41 165 23 44 45 86 49 91 7
9 47 82 215 390 21 39 64 117 95 175 32 58 72 132 90 165 38 70 59 108 210
390 62 116 149 275 193 355 44 80 98 179 120 220 22 41 66 121 98 176 106 185
134 274 118 372 -10 65 -17 81 -55 129 -57 70 -149 101 -235 79z m-2444 -4866
c3 -5 1 -10 -4 -10 -6 0 -11 5 -11 10 0 6 2 10 4 10 3 0 8 -4 11 -10z"/>
</g>
</svg>
